<?xml version="1.0" standalone="no"?>
<!DOCTYPE svg PUBLIC "-//W3C//DTD SVG 20010904//EN"
 "http://www.w3.org/TR/2001/REC-SVG-20010904/DTD/svg10.dtd">
<svg version="1.0" xmlns="http://www.w3.org/2000/svg"
 width="365.000000pt" height="365.000000pt" viewBox="0 0 365.000000 365.000000"
 preserveAspectRatio="xMidYMid meet">
<metadata>
Created by potrace 1.11, written by Peter Selinger 2001-2013
</metadata>
<g transform="translate(0.000000,365.000000) scale(0.100000,-0.100000)"
fill="#000000" stroke="none">
<path d="M1608 3215 c-2 -1 -61 -5 -133 -9 -71 -3 -141 -8 -155 -10 -14 -3
-52 -7 -85 -10 -78 -8 -119 -14 -180 -27 -27 -6 -63 -13 -80 -16 -168 -29
-413 -138 -537 -239 l-53 -44 -6 -74 c-9 -107 -40 -163 -149 -273 -106 -108
-131 -155 -138 -261 -7 -104 12 -176 86 -325 81 -166 81 -167 97 -260 11 -71
12 -239 1 -312 -2 -16 -7 -52 -11 -80 -4 -27 -9 -61 -11 -75 -2 -14 -6 -50
-10 -80 -3 -30 -10 -75 -14 -99 -4 -24 -7 -98 -6 -165 1 -149 17 -189 108
-280 75 -74 177 -128 288 -153 106 -23 387 -22 510 2 14 2 39 7 56 10 17 2
102 19 190 36 87 17 170 32 184 35 104 18 235 50 294 71 58 20 614 288 811
390 171 89 338 211 410 300 56 69 70 94 101 190 33 100 67 149 199 285 61 62
120 129 132 148 36 60 52 134 50 228 -2 76 -6 96 -34 152 -31 63 -106 147
-208 232 -99 82 -148 153 -192 277 -35 99 -76 180 -115 229 -51 62 -153 151
-203 177 l-53 27 -571 2 c-314 2 -572 2 -573 1z m997 -70 c219 -25 293 -94
450 -419 42 -88 88 -175 103 -194 l26 -34 -90 5 c-49 3 -75 3 -59 1 205 -31
331 -101 402 -222 61 -104 63 -239 5 -345 -30 -56 -135 -158 -192 -187 -38
-20 -57 -46 -24 -33 14 5 15 3 5 -16 -7 -12 -21 -27 -32 -34 -26 -15 -51 -63
-78 -152 -12 -38 -35 -94 -52 -123 -81 -142 -299 -296 -624 -442 -128 -58
-379 -184 -465 -235 -114 -66 -151 -78 -252 -76 -67 1 -97 -5 -215 -43 -178
-58 -221 -69 -318 -81 -22 -3 -67 -10 -100 -14 -33 -5 -141 -8 -240 -6 -145 2
-195 6 -257 23 -142 39 -229 97 -270 180 -18 39 -23 65 -24 152 -1 58 4 148
11 200 34 234 40 307 39 500 0 202 -19 281 -91 376 -54 72 -78 123 -90 189
-21 116 11 205 117 318 116 124 140 169 140 259 0 27 6 63 14 81 38 88 195
195 381 258 66 23 81 24 250 20 300 -6 447 -6 500 2 55 8 141 23 195 32 19 4
98 8 175 10 249 7 370 -34 651 -222 141 -93 144 -96 144 -89 0 3 -82 71 -170
139 -114 89 -293 164 -449 187 -76 12 -256 9 -346 -4 -39 -6 -107 -15 -170
-22 -27 -3 -63 -7 -80 -10 -103 -16 -411 -7 -393 11 4 4 81 12 193 20 44 4 87
8 95 10 8 2 60 7 115 10 55 4 116 8 135 10 19 2 96 6 170 10 74 4 137 9 138
10 10 9 540 0 627 -10z"/>
<path d="M1877 3014 c-1 -1 -38 -5 -82 -9 -44 -4 -87 -9 -95 -10 -8 -2 -51 -8
-95 -15 -44 -6 -91 -13 -105 -16 -14 -2 -86 -7 -160 -11 -105 -4 -160 -2 -245
12 -180 29 -260 25 -300 -17 l-20 -21 20 8 c55 20 108 26 194 21 51 -4 96 -8
100 -10 20 -13 275 -21 341 -12 76 10 135 19 145 22 54 12 250 36 303 36 118
2 315 -29 387 -61 11 -5 49 -21 85 -36 77 -33 215 -111 285 -162 l50 -37 -40
43 c-117 125 -379 247 -575 267 -59 7 -189 12 -193 8z"/>
<path d="M1835 2890 c-11 -4 27 -8 90 -8 149 -1 241 -13 355 -43 92 -25 190
-77 249 -132 37 -35 41 -37 24 -12 -62 89 -166 148 -318 180 -85 19 -364 29
-400 15z"/>
<path d="M1089 2866 c-2 -2 -29 -5 -59 -7 -69 -3 -111 -14 -175 -44 -62 -28
-91 -53 -105 -89 -17 -45 -11 -53 12 -16 27 43 40 54 100 85 98 52 308 56 463
8 17 -5 18 -4 7 10 -19 22 -88 43 -152 46 -30 1 -62 4 -71 7 -8 2 -17 2 -20 0z"/>
<path d="M1808 2830 c-33 -26 -50 -69 -46 -116 l4 -39 8 30 c15 58 28 85 57
115 33 34 16 42 -23 10z"/>
<path d="M1250 2745 c0 -3 10 -19 21 -35 16 -21 22 -44 23 -94 1 -73 17 -74
20 -1 3 64 -2 89 -25 114 -19 20 -39 28 -39 16z"/>
<path d="M2095 2663 c-159 -30 -259 -70 -323 -127 -22 -20 -44 -49 -50 -64
-18 -53 14 -111 81 -145 27 -14 34 -13 105 18 193 84 356 108 491 74 88 -23
139 -24 165 -4 17 13 18 19 8 52 -22 74 -113 146 -224 178 -53 15 -210 27
-253 18z m-19 -85 c4 -6 10 -29 14 -50 7 -36 6 -38 -19 -38 -15 0 -60 -16
-101 -36 -88 -43 -149 -58 -157 -38 -8 22 26 79 59 99 28 16 171 73 190 74 4
1 10 -4 14 -11z m399 -79 c19 -19 19 -19 -7 -19 -40 0 -78 17 -78 36 0 21 57
10 85 -17z"/>
<path d="M874 2563 c-49 -16 -116 -78 -112 -102 5 -26 71 -43 228 -56 160 -14
246 -33 273 -59 10 -10 14 -35 13 -76 l-1 -61 -158 -117 c-86 -65 -183 -131
-214 -147 -32 -17 -49 -31 -40 -33 14 -3 37 7 125 53 38 20 62 14 62 -15 0
-24 31 -27 50 -5 7 8 16 15 20 15 5 0 38 -31 75 -69 70 -73 137 -113 176 -106
30 6 66 43 74 78 9 33 -9 36 -63 8 l-38 -19 -47 34 c-53 39 -109 118 -105 149
2 12 33 40 78 71 l75 50 5 93 5 93 55 26 c87 43 79 88 -13 76 -45 -6 -51 -4
-80 24 -37 35 -121 76 -198 96 -68 18 -193 17 -245 -1z m161 -64 c19 -3 -50
-17 -92 -18 -45 -1 -59 14 -20 22 19 4 78 2 112 -4z"/>
<path d="M2634 2492 c4 -7 25 -15 46 -18 44 -7 45 -24 2 -24 -20 0 -23 -3 -13
-9 29 -19 111 3 111 29 0 4 -15 10 -32 13 -18 3 -53 9 -77 13 -32 5 -42 4 -37
-4z"/>
<path d="M472 2464 c-124 -26 -196 -78 -241 -174 -21 -46 -26 -69 -25 -140 0
-118 32 -177 124 -227 59 -33 100 -44 100 -28 0 16 -43 52 -73 60 -105 29
-131 67 -131 190 0 92 21 145 83 203 64 62 203 112 310 112 30 0 52 3 49 6
-12 12 -137 11 -196 -2z"/>
<path d="M3030 2461 c0 -5 14 -8 31 -9 120 -3 207 -47 273 -137 15 -20 15 -20
10 1 -10 37 -63 93 -108 113 -61 26 -206 49 -206 32z"/>
<path d="M2630 2405 c0 -10 9 -15 27 -15 29 0 29 2 -4 19 -19 10 -23 9 -23 -4z"/>
<path d="M2195 2370 c5 -38 32 -84 64 -108 56 -41 121 -57 231 -57 164 0 232
18 337 86 57 37 68 41 125 40 173 -2 277 -144 223 -304 -44 -131 -22 -175 40
-77 97 154 40 332 -132 416 -53 27 -67 29 -168 29 l-110 0 -134 -64 c-116 -56
-141 -65 -191 -65 -61 0 -115 22 -182 75 -20 16 -52 36 -72 44 l-35 15 4 -30z"/>
<path d="M386 2342 l-59 -28 -3 -54 -4 -55 15 35 c8 19 39 56 68 82 28 26 50
48 47 48 -3 0 -32 -13 -64 -28z"/>
<path d="M475 2291 c-36 -16 -84 -75 -72 -87 2 -3 33 0 68 6 176 31 213 24
239 -42 8 -18 18 -36 23 -40 17 -11 150 2 183 18 30 15 52 46 48 72 -1 6 -2
17 -3 22 -2 16 -46 4 -80 -21 l-31 -23 -22 21 c-27 24 -122 69 -164 78 -71 16
-149 14 -189 -4z"/>
<path d="M2871 2239 c-6 -18 -11 -40 -11 -50 0 -12 -10 -21 -27 -25 -16 -4
-136 -52 -268 -107 -395 -164 -551 -220 -734 -263 -128 -31 -127 -31 -188 -40
-26 -3 -57 -9 -68 -11 -42 -9 -343 -11 -415 -2 -166 21 -362 90 -438 154 -47
39 -65 80 -69 160 -2 38 -10 80 -19 92 -16 25 -43 31 -45 11 -5 -60 -12 -85
-33 -123 -57 -102 -80 -220 -80 -410 0 -269 70 -447 204 -515 46 -23 166 -57
230 -64 156 -18 218 -21 425 -21 127 0 263 3 302 7 258 27 496 89 668 175 65
33 204 118 215 132 3 3 22 21 44 39 63 55 128 135 218 269 47 70 105 150 129
177 36 40 43 55 41 85 -2 22 5 49 18 70 20 32 22 33 68 26 125 -20 124 13 -3
97 -70 47 -82 59 -95 98 -27 80 -50 93 -69 39z m25 -191 c-10 -60 -44 -117
-93 -154 -45 -34 -150 -74 -204 -77 l-32 -2 -2 59 c0 32 4 63 9 68 31 26 217
124 256 134 72 20 73 20 66 -28z m-2296 -178 c-16 -31 -23 -18 -8 15 7 15 14
23 16 17 2 -6 -2 -21 -8 -32z m1885 -2 c-19 -88 -75 -135 -204 -174 -47 -14
-111 -34 -142 -44 l-56 -18 -13 57 c-6 31 -14 66 -17 77 -4 18 2 23 44 33 26
7 91 26 143 43 95 30 198 56 233 57 16 1 18 -4 12 -31z m-1791 -101 c0 -23 -6
-68 -13 -101 l-13 -59 -21 22 c-28 28 -27 81 3 149 27 62 45 57 44 -11z m2056
-9 c0 -27 -84 -150 -126 -184 -48 -40 -56 -38 -70 14 -16 57 40 127 128 161
63 24 68 25 68 9z m-1916 -23 c27 -13 53 -22 58 -19 13 8 9 -24 -8 -64 -9 -20
-16 -50 -15 -66 1 -26 0 -28 -26 -20 -16 4 -38 8 -50 8 -21 1 -24 9 -38 121
-2 15 16 65 23 65 4 0 29 -11 56 -25z m1140 -8 c15 -21 34 -137 24 -137 -3 0
-54 -11 -114 -24 -99 -23 -172 -31 -246 -27 -26 1 -26 2 -25 68 l2 68 65 17
c36 10 81 20 100 23 19 3 62 12 95 19 83 19 83 19 99 -7z m-933 -51 c15 -3 60
-8 100 -12 41 -3 76 -8 78 -10 6 -5 1 -107 -5 -113 -10 -10 -150 -1 -226 14
-42 8 -43 11 -27 70 16 64 18 67 36 62 10 -3 30 -8 44 -11z m507 -68 l0 -68
-46 -1 c-68 -2 -121 -2 -171 0 -40 1 -43 3 -38 24 3 12 10 38 14 57 8 33 11
35 56 38 25 1 63 6 84 10 20 4 51 8 69 8 l32 0 0 -68z m931 -42 c6 -33 19 -68
29 -79 16 -19 16 -20 -7 -36 -14 -9 -57 -40 -95 -68 -66 -49 -205 -129 -210
-121 -16 25 -75 169 -76 188 -4 46 0 49 58 66 76 22 199 72 242 100 19 12 38
19 41 15 3 -3 11 -33 18 -65z m-439 -132 c0 -12 18 -64 39 -115 l39 -94 -36
-16 c-110 -47 -362 -94 -377 -69 -5 8 -18 141 -17 180 0 56 2 60 25 60 37 0
175 39 247 69 68 29 80 27 80 -15z m-1413 -87 c11 -17 24 -48 28 -67 l6 -35
-20 30 c-26 40 -53 105 -44 105 5 0 18 -15 30 -33z m984 -49 c0 -29 3 -81 5
-115 3 -34 1 -64 -5 -67 -11 -7 -239 -12 -244 -5 -6 9 -34 194 -30 202 2 4 32
7 66 7 34 1 91 7 127 14 36 8 68 14 73 15 4 0 7 -23 8 -51z m-844 20 c24 -26
42 -59 53 -97 4 -14 11 -33 15 -43 6 -14 2 -15 -37 -7 -78 17 -117 40 -77 45
5 1 14 2 19 3 15 2 12 43 -5 85 -12 29 -13 36 -2 36 7 0 23 -10 34 -22z m176
-14 c33 -11 47 -21 47 -34 0 -10 11 -42 25 -72 28 -59 31 -79 13 -74 -7 2 -33
9 -58 16 -41 10 -45 14 -46 43 0 18 -12 50 -27 72 -46 67 -36 77 46 49z m283
-25 c32 -30 51 -65 63 -118 11 -50 5 -55 -67 -53 -68 2 -92 9 -92 28 0 8 -13
40 -29 72 -42 82 -42 95 -6 102 46 9 103 -5 131 -31z"/>
<path d="M3358 2166 c7 -155 -38 -277 -122 -333 -26 -18 -46 -33 -43 -33 11 0
65 27 104 52 34 22 43 35 48 65 4 21 9 52 12 68 11 57 14 80 17 150 3 71 -1
105 -13 105 -3 0 -5 -33 -3 -74z"/>
<path d="M311 2168 c0 -7 4 -22 9 -33 7 -16 9 -14 7 13 -1 17 -5 32 -9 32 -4
0 -8 -6 -7 -12z"/>
<path d="M1803 2132 c-13 -2 -32 -15 -43 -30 -18 -22 -19 -27 -5 -34 8 -5 38
-11 67 -14 28 -3 60 -10 70 -15 24 -13 24 -64 0 -81 -30 -21 -56 -68 -45 -79
12 -12 65 -15 83 -4 43 27 67 177 33 207 -38 33 -115 57 -160 50z"/>
<path d="M2000 2095 c0 -42 33 -53 163 -57 99 -2 115 -1 100 10 -13 10 -42 12
-106 8 -48 -3 -99 -1 -113 4 -30 12 -42 39 -23 51 11 7 11 9 -3 9 -12 0 -18
-8 -18 -25z"/>
<path d="M320 2091 c0 -39 50 -87 82 -79 11 2 0 17 -33 46 -27 24 -49 39 -49
33z"/>
<path d="M1618 1998 c-42 -11 -73 -40 -65 -62 5 -11 30 -15 114 -18 59 -2 115
-6 123 -8 11 -4 16 5 18 37 l3 42 -43 5 c-85 12 -114 13 -150 4z"/>
<path d="M2560 1203 c-93 -31 -205 -76 -320 -130 -293 -138 -456 -194 -612
-209 -84 -8 -70 -17 17 -11 193 14 325 57 630 207 121 60 238 114 260 120 22
7 44 16 50 21 10 10 0 11 -25 2z"/>
<path d="M2680 1174 c-86 -34 -132 -54 -340 -151 -258 -121 -564 -210 -865
-253 -44 -6 -93 -13 -110 -16 -16 -3 -108 -8 -203 -11 -255 -9 -427 19 -570
91 -89 45 -114 70 -109 105 3 16 1 35 -4 42 -6 9 -9 1 -9 -27 0 -50 43 -122
93 -153 45 -28 138 -59 202 -69 67 -9 450 -9 550 1 430 43 902 175 1255 351
193 96 255 147 110 90z"/>
<path d="M666 978 c45 -87 182 -140 359 -137 78 2 77 2 -93 33 -92 17 -189 60
-241 106 -42 38 -45 38 -25 -2z"/>
<path d="M1487 963 c-2 -1 -87 -3 -190 -4 -103 -2 -187 -7 -187 -11 0 -5 101
-6 225 -4 216 3 283 9 195 18 -23 2 -42 3 -43 1z"/>
<path d="M1320 849 c0 -5 5 -7 10 -4 6 3 10 8 10 11 0 2 -4 4 -10 4 -5 0 -10
-5 -10 -11z"/>
<path d="M1350 851 c0 -8 56 -9 63 -1 3 3 -10 6 -29 6 -19 1 -34 -2 -34 -5z"/>
</g>
</svg>
